<svg width="280" height="530" viewBox="0 0 280 530" fill="none" xmlns="http://www.w3.org/2000/svg">
<g clip-path="url(#clip0_687_29)">
<path fill-rule="evenodd" clip-rule="evenodd" d="M280 44V489.203C280.001 489.473 280.005 489.729 280.005 490.003C280.005 490.276 280.001 490.532 280 490.802V492H279.992C279.731 523.882 272.962 530.005 240.003 530.005C239.73 530.005 239.474 530.001 239.204 530H40.801C40.532 530.001 40.276 530.005 40.003 530.005C7.044 530.005 0.275 523.888 0.014 492H0V44H0.04C0.017 42.707 0.001 41.387 0.001 40.003C0.001 6.357 6.344 0.002 39.1 0.001V0H240V0.001H240.003C273.656 0.001 280.005 6.361 280.005 40.003C280.005 41.387 279.99 42.707 279.967 44H280Z" fill="#001841"/>
</g>
<defs>
<clipPath id="clip0_687_29">
<rect width="280" height="530" fill="white"/>
</clipPath>
</defs>
</svg>
