<svg width="31" height="31" viewBox="0 0 31 31" fill="none" xmlns="http://www.w3.org/2000/svg">
<path fill-rule="evenodd" clip-rule="evenodd" d="M20.3571 14.8L29.3371 25.394C30.2521 26.417 30.2521 28.027 29.3021 29.095C28.3161 30.205 26.4641 30.324 25.3441 29.351L15.0101 19.945L4.67507 29.351C3.55507 30.324 1.70207 30.205 0.717065 29.095C-0.232935 28.027 -0.232935 26.417 0.681065 25.394L9.66206 14.8L0.717065 4.691C-0.232935 3.625 -0.232935 2.015 0.717065 0.947C1.25107 0.346 2.01907 0 2.82607 0C3.50507 0 4.16207 0.245 4.71907 0.734L15.0101 9.741L25.3001 0.734C25.8571 0.245 26.5131 0 27.1921 0H27.1931C28.0001 0 28.7681 0.346 29.3021 0.947C30.2521 2.015 30.2521 3.625 29.3011 4.691L20.3571 14.8Z" fill="white"/>
</svg>
