<svg width="24" height="44" viewBox="0 0 24 44" fill="none" xmlns="http://www.w3.org/2000/svg">
<path fill-rule="evenodd" clip-rule="evenodd" d="M21.9281 17.7939C20.8021 19.2609 19.0761 20.3039 18.0851 20.9949L17.8521 21.1569C16.5961 22.0379 15.9081 22.5859 15.3941 23.3179C14.7751 24.1979 14.4871 25.3319 14.4871 26.8869C14.4871 28.5389 13.1411 29.8829 11.4871 29.8829C9.83307 29.8829 8.48707 28.5389 8.48707 26.8869C8.48707 24.0809 9.13907 21.7879 10.4811 19.8769C11.6891 18.1559 13.2441 17.0659 14.3761 16.2729L14.4041 16.2529C15.7101 15.3379 16.8721 14.8279 17.3931 14.1479C17.7801 13.6439 18.2241 12.8489 18.2241 11.1559C18.2241 9.33192 17.8111 7.90592 16.9591 7.14792C15.9831 6.27692 14.0361 5.83592 11.6211 5.83592C8.95807 5.83592 7.50307 6.58192 6.84807 7.20692C6.84507 7.20992 6.84207 7.21292 6.84007 7.21492C6.22207 7.80792 5.88307 8.50092 5.88307 9.37392C5.88307 11.0259 4.65107 12.5409 2.99707 12.5409C1.34207 12.5409 -0.00292969 11.1969 -0.00292969 9.54392C-0.00292969 8.07892 0.36307 5.38492 2.81807 3.04292C4.89707 1.06092 7.94107 0.013916 11.6221 0.013916C15.5521 0.013916 18.6141 0.965916 20.7251 2.84592C22.8961 4.77892 23.9961 7.57492 23.9961 11.1559C23.9961 13.8079 23.3201 15.9789 21.9281 17.7939ZM11.3931 35.5649C13.5101 35.5649 15.2331 37.2859 15.2331 39.4009C15.2331 41.5149 13.5101 43.2359 11.3931 43.2359C9.27607 43.2359 7.55307 41.5149 7.55307 39.4009C7.55307 37.2859 9.27607 35.5649 11.3931 35.5649Z" fill="white"/>
</svg>
