<svg width="40" height="40" viewBox="0 0 40 40" fill="none" xmlns="http://www.w3.org/2000/svg">
<g clip-path="url(#clip0_687_33)">
<path fill-rule="evenodd" clip-rule="evenodd" d="M38.864 38.867C37.439 40.287 35.235 40.392 33.811 38.972L27.723 30.225C26.299 28.804 26.299 29.144 27.723 27.724C29.148 26.304 28.806 26.304 30.231 27.724L38.969 33.828C40.393 35.248 40.288 37.447 38.864 38.867ZM15.044 30.127C6.736 30.127 0 23.383 0 15.063C0 6.744 6.736 0 15.044 0C23.353 0 30.088 6.744 30.088 15.063C30.088 23.383 23.353 30.127 15.044 30.127ZM15.044 3.373C8.596 3.373 3.369 8.607 3.369 15.063C3.369 21.519 8.596 26.753 15.044 26.753C21.492 26.753 26.719 21.519 26.719 15.063C26.719 8.607 21.492 3.373 15.044 3.373Z" fill="white"/>
</g>
<defs>
<clipPath id="clip0_687_33">
<rect width="40" height="40" fill="white"/>
</clipPath>
</defs>
</svg>
