<svg width="48" height="48" viewBox="0 0 48 48" fill="none" xmlns="http://www.w3.org/2000/svg">
<g clip-path="url(#clip0_687_31)">
<path fill-rule="evenodd" clip-rule="evenodd" d="M25.347 3.485C25.82 3.485 26.242 3.783 26.401 4.229L27.117 6.243C27.624 7.667 28.787 8.786 30.23 9.237C30.762 9.404 31.41 9.491 32.103 9.491C33.215 9.491 34.311 9.273 35.111 8.893L36.297 8.329C36.451 8.255 36.615 8.22 36.778 8.22C37.068 8.22 37.355 8.333 37.569 8.548L39.464 10.443C39.799 10.778 39.887 11.287 39.684 11.715L38.881 13.406C38.208 14.822 38.179 16.463 38.817 17.896L38.818 17.898C39.46 19.365 40.692 20.513 42.199 21.048L43.783 21.612C44.229 21.771 44.527 22.193 44.527 22.667V25.347C44.527 25.82 44.229 26.242 43.783 26.401L42.169 26.975C40.659 27.512 39.452 28.659 38.812 30.128L38.811 30.131C38.316 31.272 38.228 32.558 38.563 33.755C38.646 34.052 38.756 34.344 38.889 34.625L39.684 36.297C39.887 36.725 39.799 37.234 39.464 37.569L37.57 39.465C37.355 39.679 37.068 39.792 36.778 39.792C36.615 39.792 36.451 39.757 36.297 39.684L35.111 39.12C34.31 38.739 33.214 38.521 32.103 38.521C31.409 38.521 30.761 38.609 30.23 38.776C28.788 39.226 27.624 40.345 27.117 41.77L26.401 43.783C26.242 44.229 25.82 44.527 25.347 44.527H22.666C22.193 44.527 21.77 44.229 21.611 43.783L20.895 41.769C20.389 40.345 19.225 39.226 17.784 38.776C17.252 38.609 16.604 38.521 15.91 38.521C14.799 38.521 13.703 38.739 12.903 39.12L11.715 39.684C11.562 39.757 11.398 39.792 11.235 39.792C10.944 39.792 10.658 39.679 10.443 39.465L8.548 37.569C8.213 37.234 8.126 36.725 8.329 36.297L9.124 34.625C9.263 34.333 9.376 34.026 9.46 33.716C9.783 32.525 9.689 31.247 9.195 30.116L9.194 30.114C8.592 28.634 7.348 27.51 5.843 26.975L4.23 26.401C3.783 26.242 3.485 25.82 3.485 25.347V22.667C3.485 22.193 3.783 21.771 4.229 21.612L5.813 21.048C7.321 20.513 8.553 19.365 9.171 17.949C9.179 17.932 9.187 17.914 9.195 17.897C9.826 16.454 9.8 14.811 9.124 13.389L8.328 11.715C8.125 11.287 8.213 10.778 8.548 10.443L10.444 8.548C10.658 8.333 10.944 8.22 11.235 8.22C11.398 8.22 11.562 8.255 11.716 8.329L12.902 8.893C13.702 9.273 14.799 9.491 15.91 9.491C16.603 9.491 17.251 9.404 17.783 9.237C19.225 8.786 20.389 7.667 20.895 6.243L21.612 4.229C21.77 3.783 22.193 3.485 22.666 3.485H25.347ZM24.008 33.418C29.205 33.418 33.418 29.205 33.418 24.008C33.418 18.811 29.205 14.598 24.008 14.598C18.811 14.598 14.598 18.811 14.598 24.008C14.598 29.205 18.811 33.418 24.008 33.418ZM25.358 0H22.655C20.781 0 19.1 1.186 18.472 2.952L17.749 4.983C17.588 5.437 17.202 5.808 16.741 5.952C16.664 5.976 16.364 6.057 15.841 6.057C15.139 6.057 14.525 5.915 14.228 5.774L13.034 5.206C12.442 4.924 11.782 4.775 11.127 4.775C9.941 4.775 8.826 5.237 7.987 6.076L6.076 7.987C4.75 9.312 4.4 11.34 5.205 13.032L6.007 14.72C6.273 15.278 6.287 15.922 6.048 16.49C6.035 16.517 6.022 16.545 6.01 16.573C5.748 17.174 5.202 17.672 4.55 17.903L2.952 18.472C1.186 19.1 0 20.781 0 22.655V25.358C0 27.232 1.186 28.913 2.952 29.541L4.579 30.12C5.241 30.355 5.757 30.823 5.997 31.403C6.009 31.434 6.022 31.464 6.035 31.495C6.233 31.946 6.27 32.456 6.141 32.931C6.108 33.054 6.062 33.178 6.008 33.292L5.205 34.98C4.401 36.672 4.751 38.7 6.075 40.025L7.986 41.937C8.825 42.776 9.94 43.238 11.127 43.238C11.782 43.238 12.441 43.089 13.033 42.808L14.23 42.238C14.526 42.098 15.14 41.956 15.841 41.956C16.363 41.956 16.661 42.036 16.74 42.061C17.203 42.205 17.588 42.576 17.75 43.03L18.471 45.06C19.099 46.826 20.78 48.013 22.655 48.013H25.358C27.232 48.013 28.913 46.826 29.541 45.06L30.264 43.029C30.425 42.576 30.81 42.205 31.269 42.062C31.351 42.036 31.65 41.956 32.171 41.956C32.873 41.956 33.487 42.098 33.784 42.239L34.98 42.807C35.572 43.089 36.231 43.238 36.886 43.238C38.073 43.238 39.188 42.776 40.026 41.936L41.937 40.025C43.262 38.7 43.612 36.673 42.807 34.98L42.006 33.293C41.952 33.181 41.909 33.065 41.876 32.947C41.742 32.47 41.777 31.958 41.973 31.503L41.974 31.501C42.257 30.853 42.788 30.349 43.432 30.12L45.06 29.541C46.826 28.914 48.013 27.232 48.013 25.358V22.655C48.013 20.781 46.826 19.1 45.061 18.472L43.463 17.904C42.801 17.668 42.26 17.164 41.978 16.52C41.974 16.512 41.97 16.502 41.967 16.494C41.719 15.939 41.731 15.298 41.997 14.737L42.808 13.032C43.612 11.34 43.262 9.312 41.937 7.987L40.026 6.076C39.187 5.237 38.072 4.775 36.886 4.775C36.23 4.775 35.571 4.924 34.979 5.205L33.783 5.774C33.487 5.915 32.873 6.057 32.171 6.057C31.649 6.057 31.349 5.976 31.269 5.951C30.811 5.808 30.425 5.437 30.263 4.983L29.541 2.952C28.913 1.186 27.232 0 25.358 0ZM24.008 30.117C20.639 30.117 17.899 27.376 17.899 24.008C17.899 20.639 20.639 17.899 24.008 17.899C27.376 17.899 30.117 20.639 30.117 24.008C30.117 27.376 27.376 30.117 24.008 30.117Z" fill="white"/>
</g>
<defs>
<clipPath id="clip0_687_31">
<rect width="48" height="48" fill="white"/>
</clipPath>
</defs>
</svg>
