<svg width="30" height="28" viewBox="0 0 30 28" fill="none" xmlns="http://www.w3.org/2000/svg">
<path fill-rule="evenodd" clip-rule="evenodd" d="M29.7909 23.6381L21.8809 26.994C21.5199 27.138 21.1269 26.884 21.0949 26.487L20.3839 17.633C20.3729 17.489 20.4369 17.357 20.5429 17.279C20.6589 17.191 20.8189 17.191 20.9459 17.268L23.8129 19.101C25.8409 15.557 25.5229 11.218 23.3349 8.05005C22.5069 6.85705 21.4349 5.83105 20.0969 5.06905C17.8569 3.79905 15.2869 3.55605 12.9409 4.20805C12.6439 4.28505 12.3359 4.06405 12.3139 3.74405L12.0909 0.896049C12.0699 0.642049 12.2299 0.399049 12.4739 0.343049C15.3089 -0.329951 18.3449 -0.0649509 21.0949 1.27105C22.7939 2.09905 24.2269 3.23605 25.3949 4.57205C29.2599 9.01005 30.0669 15.7341 26.9659 21.1101L29.8429 22.9431C29.9589 23.0311 30.0349 23.1751 30.0129 23.3291C30.0029 23.4731 29.9179 23.5831 29.7909 23.6381ZM9.90493 22.91C12.1449 24.18 14.7139 24.422 17.0609 23.771C17.3579 23.694 17.6659 23.9151 17.6869 24.2351L17.9099 27.083C17.9309 27.337 17.7719 27.58 17.5279 27.635C14.6929 28.308 11.6559 28.0431 8.90593 26.7071C7.20793 25.8791 5.77393 24.742 4.60593 23.406C0.74193 18.968 -0.0650697 12.256 3.03493 6.86905L0.15793 5.03605C0.0409302 4.94705 -0.0330698 4.80405 -0.0120698 4.64905C-0.00106982 4.50605 0.0839302 4.39505 0.21093 4.34005L8.12093 0.984049C8.48193 0.841049 8.87493 1.09505 8.90693 1.49205L9.61793 10.346C9.62893 10.49 9.56493 10.622 9.45893 10.699C9.34193 10.788 9.18293 10.788 9.05493 10.711L6.18793 8.87805C4.16093 12.422 4.47893 16.7611 6.66593 19.9291C7.49493 21.1211 8.56693 22.148 9.90493 22.91Z" fill="white"/>
</svg>
