<svg width="40" height="30" viewBox="0 0 40 30" fill="none" xmlns="http://www.w3.org/2000/svg">
<path fill-rule="evenodd" clip-rule="evenodd" d="M36.5 29.999C33.556 29.999 32.1 29.524 32.1 26.373C32.1 26.599 32.1 4.517 32.1 3.626C32.1 0.475 33.556 0 36.5 0C39.444 0 40.001 0.475 40.001 3.626C40.001 4.352 40.001 26.335 40.001 26.373C40.001 29.524 39.444 29.999 36.5 29.999ZM25.5 29.999C22.556 29.999 21.1 29.524 21.1 26.373C21.1 26.594 21.1 10.684 21.1 9.626C21.1 6.475 22.556 6 25.5 6C28.444 6 29.001 6.475 29.001 9.626C29.001 10.294 29.001 26.335 29.001 26.373C29.001 29.524 28.444 29.999 25.5 29.999ZM14.5 29.999C11.556 29.999 10.1 29.524 10.1 26.373C10.1 26.586 10.1 16.638 10.1 15.626C10.1 12.475 11.556 12 14.5 12C17.444 12 18.001 12.475 18.001 15.626C18.001 16.365 18.001 26.336 18.001 26.373C18.001 29.524 17.444 29.999 14.5 29.999ZM3.5 29.999C0.556 29.999 0 29.524 0 26.373C0 26.566 0 22.479 0 21.626C0 18.475 0.556 18 3.5 18C6.444 18 7.001 18.474 7.001 21.626C7.001 22.273 7.001 26.339 7.001 26.373C7.001 29.524 6.444 29.999 3.5 29.999Z" fill="white"/>
</svg>
