<svg width="20" height="35" viewBox="0 0 20 35" fill="none" xmlns="http://www.w3.org/2000/svg">
<path fill-rule="evenodd" clip-rule="evenodd" d="M19.986 18.592C19.973 18.716 19.952 18.839 19.929 18.964C19.901 19.118 19.875 19.241 19.84 19.364C19.805 19.49 19.757 19.613 19.709 19.737C19.66 19.862 19.608 19.988 19.544 20.109C19.493 20.212 19.428 20.319 19.359 20.424C19.28 20.554 19.2 20.672 19.11 20.786C19.104 20.8 19.07 20.85 19.03 20.898C18.917 21.031 18.787 21.163 18.668 21.273L4.526 34.272C3.997 34.757 3.373 35 2.727 35C1.96 35 1.23 34.657 0.722 34.061C-0.181 33.002 -0.180999 31.404 0.723 30.347L11.425 18.198L0.688002 5.568C-0.180997 4.554 -0.180997 2.956 0.722003 1.897C1.659 0.796999 3.419 0.678 4.484 1.644L18.706 15.161C18.787 15.232 18.917 15.365 19.024 15.489L19.136 15.647C19.198 15.721 19.278 15.841 19.355 15.963C19.422 16.068 19.49 16.177 19.546 16.289C19.608 16.408 19.66 16.535 19.711 16.663C19.757 16.782 19.805 16.904 19.841 17.032C19.875 17.159 19.902 17.281 19.926 17.41C19.952 17.556 19.973 17.68 19.986 17.806C19.997 17.931 20 18.057 20 18.187C20 18.338 19.997 18.465 19.986 18.592Z" fill="white"/>
</svg>
