<svg width="30" height="36" viewBox="0 0 30 36" fill="none" xmlns="http://www.w3.org/2000/svg">
<path fill-rule="evenodd" clip-rule="evenodd" d="M1.12107 28.9322C1.22507 29.0792 1.34107 29.2192 1.45907 29.3602C1.60407 29.5332 1.72507 29.6712 1.85707 29.7992C1.99107 29.9332 2.13907 30.0542 2.28807 30.1752C2.43807 30.2972 2.59307 30.4182 2.75907 30.5252C2.89707 30.6182 3.05407 30.7062 3.21407 30.7892C3.40607 30.8952 3.59007 30.9862 3.78307 31.0652C3.80207 31.0782 3.87807 31.1162 3.96307 31.1482C4.19807 31.2342 4.45507 31.3072 4.68107 31.3592L25.3841 35.8902C26.3871 36.1192 27.3331 35.9752 28.1311 35.5102C29.0791 34.9572 29.7351 33.9992 29.9331 32.8832C30.2861 30.8992 29.1361 28.8872 27.2581 28.2062L11.4191 22.2692L13.9411 4.81922C14.2851 2.91722 13.1341 0.904218 11.2561 0.221218C9.30607 -0.489782 7.04407 0.629218 6.42307 2.61222L0.232072 23.6902C0.183072 23.8372 0.118072 24.0982 0.0750717 24.3322L0.0500717 24.6122C0.0270717 24.7502 0.0140717 24.9582 0.00707172 25.1662C0.00107172 25.3472 -0.00592828 25.5342 0.00607172 25.7162C0.0150717 25.9102 0.0420717 26.1072 0.0710717 26.3052C0.100072 26.4892 0.129072 26.6772 0.177072 26.8642C0.225072 27.0482 0.281072 27.2212 0.344072 27.4012C0.417072 27.6032 0.479072 27.7752 0.555072 27.9422C0.631072 28.1082 0.718072 28.2692 0.812072 28.4322C0.921072 28.6232 1.01607 28.7812 1.12107 28.9322Z" fill="white"/>
</svg>
