<svg width="30" height="30" viewBox="0 0 30 30" fill="none" xmlns="http://www.w3.org/2000/svg">
<path fill-rule="evenodd" clip-rule="evenodd" d="M20.3361 14.798L29.3161 25.392C30.2311 26.415 30.2311 28.025 29.2811 29.093C28.2951 30.203 26.4431 30.322 25.3231 29.349L14.9891 19.943L4.65407 29.349C3.53407 30.322 1.68107 30.203 0.696069 29.093C-0.253931 28.025 -0.253931 26.415 0.660069 25.392L9.64107 14.798L0.696069 4.68905C-0.253931 3.62305 -0.253931 2.01305 0.696069 0.945047C1.23007 0.344047 1.99807 -0.00195312 2.80507 -0.00195312C3.48407 -0.00195312 4.14107 0.243047 4.69807 0.732047L14.9891 9.73905L25.2791 0.732047C25.8361 0.243047 26.4921 -0.00195312 27.1711 -0.00195312H27.1721C27.9791 -0.00195312 28.7471 0.344047 29.2811 0.945047C30.2311 2.01305 30.2311 3.62305 29.2801 4.68905L20.3361 14.798Z" fill="white"/>
</svg>
