<svg width="20" height="34" viewBox="0 0 20 34" fill="none" xmlns="http://www.w3.org/2000/svg">
<path fill-rule="evenodd" clip-rule="evenodd" d="M0.0198594 16.406C0.0328594 16.282 0.0538594 16.159 0.0768594 16.034C0.104859 15.88 0.130859 15.757 0.165859 15.634C0.200859 15.508 0.248859 15.385 0.296859 15.261C0.345859 15.136 0.397859 15.01 0.461859 14.889C0.512859 14.786 0.577859 14.679 0.646859 14.574C0.725859 14.444 0.805859 14.326 0.895859 14.212C0.901859 14.198 0.935859 14.148 0.975859 14.1C1.08886 13.967 1.21886 13.835 1.33786 13.725L15.4799 0.726047C16.0089 0.241047 16.6329 -0.00195312 17.2789 -0.00195312C18.0459 -0.00195312 18.7759 0.341047 19.2839 0.937047C20.1869 1.99605 20.1869 3.59405 19.2829 4.65105L8.58086 16.8L19.3179 29.43C20.1869 30.444 20.1869 32.042 19.2839 33.101C18.3469 34.201 16.5869 34.32 15.5219 33.354L1.29986 19.837C1.21886 19.766 1.08886 19.633 0.981859 19.509L0.869859 19.351C0.807859 19.277 0.727859 19.157 0.650859 19.035C0.583859 18.93 0.515859 18.821 0.459859 18.709C0.397859 18.59 0.345859 18.463 0.294859 18.335C0.248859 18.216 0.200859 18.094 0.164859 17.966C0.130859 17.839 0.103859 17.717 0.0798594 17.588C0.0538594 17.442 0.0328594 17.318 0.0198594 17.192C0.00885937 17.067 0.00585938 16.941 0.00585938 16.811C0.00585938 16.66 0.00885937 16.533 0.0198594 16.406Z" fill="white"/>
</svg>
