<svg width="30" height="36" viewBox="0 0 30 36" fill="none" xmlns="http://www.w3.org/2000/svg">
<path fill-rule="evenodd" clip-rule="evenodd" d="M28.8799 28.9322C28.7749 29.0792 28.6589 29.2192 28.5419 29.3602C28.3959 29.5332 28.2749 29.6712 28.1429 29.7992C28.0089 29.9332 27.8609 30.0542 27.7119 30.1752C27.5619 30.2972 27.4069 30.4182 27.2409 30.5252C27.1029 30.6182 26.9459 30.7062 26.7849 30.7892C26.5939 30.8952 26.4109 30.9862 26.2169 31.0652C26.1989 31.0782 26.1219 31.1162 26.0369 31.1482C25.8019 31.2342 25.5449 31.3072 25.3189 31.3592L4.61591 35.8902C3.61291 36.1192 2.66691 35.9752 1.86891 35.5102C0.920914 34.9572 0.264914 33.9992 0.0669139 32.8832C-0.286086 30.8992 0.863914 28.8872 2.74191 28.2062L18.5809 22.2692L16.0589 4.81922C15.7149 2.91722 16.8659 0.904218 18.7439 0.221218C20.6939 -0.489782 22.9559 0.629218 23.5769 2.61222L29.7679 23.6902C29.8169 23.8372 29.8819 24.0982 29.9249 24.3322L29.9499 24.6122C29.9729 24.7502 29.9859 24.9582 29.9929 25.1662C29.0999 25.3472 30.0059 25.5342 29.9939 25.7162C29.9839 25.9102 29.9579 26.1072 29.9289 26.3052C29.8999 26.4892 29.8709 26.6772 29.8229 26.8642C29.7749 27.0482 29.7189 27.2212 29.6559 27.4012C29.5829 27.6032 29.5209 27.7752 29.4459 27.9422C29.3689 28.1082 29.2819 28.2692 29.1879 28.4322C29.0789 28.6232 28.9839 28.7812 28.8799 28.9322Z" fill="white"/>
</svg>
