<svg width="1280" height="720" viewBox="0 0 1280 720" fill="none" xmlns="http://www.w3.org/2000/svg">
<g clip-path="url(#clip0_687_90)">
<path fill-rule="evenodd" clip-rule="evenodd" d="M1249.81 719.999C1248.78 719.999 1277.82 719.1 1279.65 719.1H0.089C1.908 719.1 30.99 719.999 29.966 719.999C4.96 719.999 0.079 715.234 0 690.22V29.755C0.079 4.762 4.96 0.001 29.966 0.001C30.99 0.001 2.167 0 0.348 0H1279.91C1278.08 0 1248.78 0.001 1249.81 0.001C1275 0.001 1279.92 4.734 1280 29.578V690.396C1279.92 715.262 1275 719.999 1249.81 719.999ZM0.002 31.657C0.003 31.942 0.004 32.296 0.005 32.689C0.004 32.367 0.003 32.023 0.002 31.657ZM0.002 688.316C0.003 687.95 0.004 687.605 0.005 687.283C0.004 687.677 0.003 688.031 0.002 688.316ZM0.016 36.195C0.017 36.477 0.018 36.698 0.018 36.833C0.018 36.71 0.017 36.498 0.016 36.195ZM0.016 683.775C0.017 683.471 0.018 683.259 0.018 683.136C0.018 683.271 0.017 683.492 0.016 683.775ZM1280 31.315C1280 31.617 1280 32.021 1279.99 32.496C1279.99 33.133 1279.99 33.862 1279.99 34.54C1279.99 33.986 1279.99 33.303 1279.99 32.496C1280 32.131 1280 31.733 1280 31.315C1280 31.172 1280 31.037 1279.1 30.887C1279.1 30.969 1280 31.126 1280 31.315ZM1279.99 687.476C1280 688.249 1280 688.873 1279.1 689.087C1280 688.494 1280 687.967 1279.99 687.476C1279.99 686.669 1279.99 685.986 1279.99 685.432C1279.99 686.11 1279.99 686.839 1279.99 687.476Z" fill="#D6D7D9"/>
</g>
<defs>
<clipPath id="clip0_687_90">
<rect width="1280" height="720" fill="white"/>
</clipPath>
</defs>
</svg>
