<svg width="10" height="390" viewBox="0 0 10 390" fill="none" xmlns="http://www.w3.org/2000/svg">
<g clip-path="url(#clip0_687_49)">
<path opacity="0.502" fill-rule="evenodd" clip-rule="evenodd" d="M10.0051 8.08797C10.0051 6.06797 10.0051 381.825 10.0051 381.913C10.0051 388.95 9.20909 390.009 5.00109 390.009C0.792094 390.009 -0.00390625 388.949 -0.00390625 381.913C-0.00390625 382.44 -0.00390625 5.37897 -0.00390625 8.08797C-0.00390625 1.05197 0.792094 -0.0090332 5.00109 -0.0090332C9.20909 -0.0090332 10.0051 1.05097 10.0051 8.08797Z" fill="white"/>
<g clip-path="url(#clip1_687_49)">
<path fill-rule="evenodd" clip-rule="evenodd" d="M10.0051 8.08797C10.0051 6.06797 10.0051 121.804 10.0051 121.892C10.0051 128.929 9.20909 129.989 5.00109 129.989C0.792094 129.989 -0.00390625 128.928 -0.00390625 121.892C-0.00390625 122.419 -0.00390625 5.37897 -0.00390625 8.08797C-0.00390625 1.05197 0.792094 -0.0090332 5.00109 -0.0090332C9.20909 -0.0090332 10.0051 1.05097 10.0051 8.08797Z" fill="white"/>
</g>
</g>
<defs>
<clipPath id="clip0_687_49">
<rect width="10" height="390" fill="white"/>
</clipPath>
<clipPath id="clip1_687_49">
<rect width="10" height="130" fill="white"/>
</clipPath>
</defs>
</svg>
